<?xml version="1.0" encoding="UTF-8"?>
<!DOCTYPE svg PUBLIC "-//W3C//DTD SVG 1.1//EN" "http://www.w3.org/Graphics/SVG/1.1/DTD/svg11.dtd">
<svg xmlns="http://www.w3.org/2000/svg" version="1.1" width="1181px" height="1076px" style="shape-rendering:geometricPrecision; text-rendering:geometricPrecision; image-rendering:optimizeQuality; fill-rule:evenodd; clip-rule:evenodd" xmlns:xlink="http://www.w3.org/1999/xlink">
<g><path style="opacity:0.989" fill="#0062b2" d="M 551.5,-0.5 C 577.5,-0.5 603.5,-0.5 629.5,-0.5C 636.979,2.81888 641.812,8.48555 644,16.5C 644.333,131.5 644.667,246.5 645,361.5C 701,259.5 757,157.5 813,55.5C 821.973,49.0051 831.14,48.8385 840.5,55C 856.5,64 872.5,73 888.5,82C 895.134,86.9005 897.634,93.4005 896,101.5C 838.601,205.296 780.934,308.963 723,412.5C 718.221,423.14 710.054,427.307 698.5,425C 674.829,409.832 649.162,399.666 621.5,394.5C 582.349,388.264 545.016,393.931 509.5,411.5C 479.523,389.865 449.523,368.199 419.5,346.5C 379.026,266.22 338.526,185.887 298,105.5C 294.305,91.9128 298.139,81.0795 309.5,73C 335.5,60.6667 361.5,48.3333 387.5,36C 403.102,31.3907 414.602,36.2241 422,50.5C 460.667,137.167 499.333,223.833 538,310.5C 537.498,212.504 537.165,114.504 537,16.5C 539.188,8.48555 544.021,2.81888 551.5,-0.5 Z"/></g>
<g><path style="opacity:0.991" fill="#009fc8" d="M 419.5,346.5 C 449.523,368.199 479.523,389.865 509.5,411.5C 488.772,422.706 470.438,437.039 454.5,454.5C 401.833,454.5 349.167,454.5 296.5,454.5C 234.586,409.531 172.252,365.031 109.5,321C 93.1294,309.218 88.9627,294.051 97,275.5C 116.465,247.403 136.298,219.569 156.5,192C 168.523,183.362 181.19,182.362 194.5,189C 269.529,241.51 344.529,294.01 419.5,346.5 Z"/></g>
<g><path style="opacity:0.978" fill="#0061b2" d="M 1081.5,294.5 C 1087.7,293.285 1092.87,294.952 1097,299.5C 1103,311.5 1109,323.5 1115,335.5C 1117.9,342.549 1116.4,348.382 1110.5,353C 999.833,408 889.167,463 778.5,518C 773.007,519.358 768.173,518.191 764,514.5C 757.061,500.956 750.395,487.289 744,473.5C 743.527,468.914 744.693,464.748 747.5,461C 858.77,405.198 970.104,349.698 1081.5,294.5 Z"/></g>
<g><path style="opacity:0.996" fill="#fbc700" d="M 296.5,454.5 C 349.167,454.5 401.833,454.5 454.5,454.5C 412.989,506.208 400.655,564.375 417.5,629C 418.41,638.192 414.41,643.859 405.5,646C 285.5,646.667 165.5,646.667 45.5,646C 31,642.167 21.8333,633 18,618.5C 17.3333,573.167 17.3333,527.833 18,482.5C 21.0626,467.771 29.896,458.604 44.5,455C 128.499,454.5 212.499,454.333 296.5,454.5 Z"/></g>
<g><path style="opacity:0.978" fill="#0061b2" d="M 777.5,586.5 C 904.5,586.333 1031.5,586.5 1158.5,587C 1161.06,587.685 1162.89,589.185 1164,591.5C 1164.67,602.833 1164.67,614.167 1164,625.5C 1163.17,627.667 1161.67,629.167 1159.5,630C 1031.5,630.667 903.5,630.667 775.5,630C 773.622,628.457 772.122,626.624 771,624.5C 770.333,614.167 770.333,603.833 771,593.5C 772.018,589.985 774.185,587.652 777.5,586.5 Z"/></g>
<g><path style="opacity:0.962" fill="#221814" d="M 56.5,766.5 C 67.1667,766.5 77.8333,766.5 88.5,766.5C 88.5,770.833 88.5,775.167 88.5,779.5C 101.5,779.5 114.5,779.5 127.5,779.5C 127.5,787.5 127.5,795.5 127.5,803.5C 123.445,803.176 119.445,803.509 115.5,804.5C 126.5,831.31 118.834,851.143 92.5,864C 69.7412,871.85 49.9079,867.35 33,850.5C 22.2779,836.052 20.7779,820.718 28.5,804.5C 24.5546,803.509 20.5546,803.176 16.5,803.5C 16.5,795.5 16.5,787.5 16.5,779.5C 29.8333,779.5 43.1667,779.5 56.5,779.5C 56.5,775.167 56.5,770.833 56.5,766.5 Z M 70.5,804.5 C 87.3228,806.167 93.8228,815.167 90,831.5C 82.3646,842.534 72.5313,845.034 60.5,839C 51.6594,831.431 50.1594,822.598 56,812.5C 59.8526,807.845 64.686,805.178 70.5,804.5 Z"/></g>
<g><path style="opacity:0.956" fill="#221814" d="M 450.5,769.5 C 482.597,769.94 500.93,785.94 505.5,817.5C 501.502,847.162 484.502,863.162 454.5,865.5C 432.702,864.697 416.868,854.697 407,835.5C 398.486,806.366 407.986,785.533 435.5,773C 440.545,771.425 445.545,770.259 450.5,769.5 Z M 447.5,795.5 C 467.821,793.989 477.321,803.322 476,823.5C 469.316,838.094 458.483,842.594 443.5,837C 428.401,825.078 427.734,812.411 441.5,799C 443.727,798.059 445.727,796.892 447.5,795.5 Z"/></g>
<g><path style="opacity:0.959" fill="#221814" d="M 1048.5,770.5 C 1073.76,768.371 1091.6,778.705 1102,801.5C 1106.97,818.91 1103.14,834.077 1090.5,847C 1098.83,847.5 1107.16,847.666 1115.5,847.5C 1115.5,855.5 1115.5,863.5 1115.5,871.5C 1097.17,871.5 1078.83,871.5 1060.5,871.5C 1060.5,878.167 1060.5,884.833 1060.5,891.5C 1050.5,891.5 1040.5,891.5 1030.5,891.5C 1030.5,884.833 1030.5,878.167 1030.5,871.5C 1020.17,871.5 1009.83,871.5 999.5,871.5C 999.5,863.5 999.5,855.5 999.5,847.5C 1007.17,847.666 1014.84,847.5 1022.5,847C 1003.84,825.68 1003.84,804.347 1022.5,783C 1030.34,776.913 1039,772.746 1048.5,770.5 Z M 1050.5,794.5 C 1063.65,792.819 1072.48,798.152 1077,810.5C 1078.48,822.371 1073.65,830.538 1062.5,835C 1043.85,836.688 1035.02,828.188 1036,809.5C 1038.35,801.984 1043.18,796.984 1050.5,794.5 Z"/></g>
<g><path style="opacity:0.968" fill="#221814" d="M 150.5,774.5 C 160.5,774.5 170.5,774.5 180.5,774.5C 180.5,784.167 180.5,793.833 180.5,803.5C 187.833,803.5 195.167,803.5 202.5,803.5C 202.5,811.833 202.5,820.167 202.5,828.5C 195.167,828.5 187.833,828.5 180.5,828.5C 180.5,843.167 180.5,857.833 180.5,872.5C 170.5,872.5 160.5,872.5 150.5,872.5C 150.5,839.833 150.5,807.167 150.5,774.5 Z"/></g>
<g><path style="opacity:0.938" fill="#221814" d="M 344.5,774.5 C 354.833,774.5 365.167,774.5 375.5,774.5C 375.5,803.167 375.5,831.833 375.5,860.5C 365.167,860.5 354.833,860.5 344.5,860.5C 344.5,831.833 344.5,803.167 344.5,774.5 Z"/></g>
<g><path style="opacity:0.975" fill="#221814" d="M 537.5,774.5 C 547.5,774.5 557.5,774.5 567.5,774.5C 567.5,784.167 567.5,793.833 567.5,803.5C 574.5,803.5 581.5,803.5 588.5,803.5C 588.5,811.833 588.5,820.167 588.5,828.5C 581.5,828.5 574.5,828.5 567.5,828.5C 567.5,843.167 567.5,857.833 567.5,872.5C 557.5,872.5 547.5,872.5 537.5,872.5C 537.5,839.833 537.5,807.167 537.5,774.5 Z"/></g>
<g><path style="opacity:0.961" fill="#221814" d="M 730.5,774.5 C 740.833,774.5 751.167,774.5 761.5,774.5C 761.5,787.167 761.5,799.833 761.5,812.5C 768.5,812.5 775.5,812.5 782.5,812.5C 782.5,820.833 782.5,829.167 782.5,837.5C 775.5,837.5 768.5,837.5 761.5,837.5C 761.5,875.167 761.5,912.833 761.5,950.5C 751.167,950.5 740.833,950.5 730.5,950.5C 730.5,929.5 730.5,908.5 730.5,887.5C 689.5,887.5 648.5,887.5 607.5,887.5C 607.5,879.167 607.5,870.833 607.5,862.5C 614.167,862.5 620.833,862.5 627.5,862.5C 627.5,849.5 627.5,836.5 627.5,823.5C 637.5,823.5 647.5,823.5 657.5,823.5C 657.5,836.5 657.5,849.5 657.5,862.5C 666.167,862.5 674.833,862.5 683.5,862.5C 683.5,842.167 683.5,821.833 683.5,801.5C 659.167,801.5 634.833,801.5 610.5,801.5C 610.5,793.167 610.5,784.833 610.5,776.5C 635.502,776.333 660.502,776.5 685.5,777C 699.344,776.551 708.511,782.717 713,795.5C 713.5,817.164 713.667,838.831 713.5,860.5C 719.167,860.5 724.833,860.5 730.5,860.5C 730.5,831.833 730.5,803.167 730.5,774.5 Z"/></g>
<g><path style="opacity:0.962" fill="#221814" d="M 947.5,774.5 C 957.5,774.5 967.5,774.5 977.5,774.5C 977.5,806.167 977.5,837.833 977.5,869.5C 967.5,869.5 957.5,869.5 947.5,869.5C 947.5,863.833 947.5,858.167 947.5,852.5C 940.167,852.5 932.833,852.5 925.5,852.5C 925.5,844.833 925.5,837.167 925.5,829.5C 932.833,829.5 940.167,829.5 947.5,829.5C 947.5,823.833 947.5,818.167 947.5,812.5C 940.167,812.5 932.833,812.5 925.5,812.5C 925.5,804.833 925.5,797.167 925.5,789.5C 932.833,789.5 940.167,789.5 947.5,789.5C 947.5,784.5 947.5,779.5 947.5,774.5 Z"/></g>
<g><path style="opacity:0.975" fill="#221814" d="M 1134.5,774.5 C 1144.5,774.5 1154.5,774.5 1164.5,774.5C 1164.5,813.5 1164.5,852.5 1164.5,891.5C 1154.5,891.5 1144.5,891.5 1134.5,891.5C 1134.5,873.5 1134.5,855.5 1134.5,837.5C 1127.5,837.5 1120.5,837.5 1113.5,837.5C 1113.5,829.167 1113.5,820.833 1113.5,812.5C 1120.5,812.5 1127.5,812.5 1134.5,812.5C 1134.5,799.833 1134.5,787.167 1134.5,774.5 Z"/></g>
<g><path style="opacity:0.956" fill="#221814" d="M 219.5,776.5 C 248.835,776.333 278.169,776.5 307.5,777C 310.034,777.516 312.2,778.683 314,780.5C 319.456,800.221 315.789,818.221 303,834.5C 291.432,846.036 277.599,853.536 261.5,857C 247.621,859.58 233.621,860.747 219.5,860.5C 219.5,852.167 219.5,843.833 219.5,835.5C 230.591,835.837 241.591,835.004 252.5,833C 264.819,830.939 274.319,824.772 281,814.5C 282.9,810.368 283.733,806.034 283.5,801.5C 262.167,801.5 240.833,801.5 219.5,801.5C 219.5,793.167 219.5,784.833 219.5,776.5 Z"/></g>
<g><path style="opacity:0.961" fill="#221814" d="M 804.5,776.5 C 814.833,776.5 825.167,776.5 835.5,776.5C 835.5,782.167 835.5,787.833 835.5,793.5C 852.167,793.5 868.833,793.5 885.5,793.5C 885.5,787.833 885.5,782.167 885.5,776.5C 895.5,776.5 905.5,776.5 915.5,776.5C 915.667,798.836 915.5,821.169 915,843.5C 913.167,852 908,857.167 899.5,859C 874.5,859.667 849.5,859.667 824.5,859C 811.39,857.302 804.89,849.802 805,836.5C 804.5,816.503 804.333,796.503 804.5,776.5 Z M 835.5,817.5 C 851.833,817.5 868.167,817.5 884.5,817.5C 884.5,823.5 884.5,829.5 884.5,835.5C 868.167,835.5 851.833,835.5 835.5,835.5C 835.5,829.5 835.5,823.5 835.5,817.5 Z"/></g>
<g><path style="opacity:0.956" fill="#221814" d="M 909.5,867.5 C 937.498,865.051 956.664,876.718 967,902.5C 971.72,931.438 960.22,950.605 932.5,960C 906.104,965.877 885.938,957.377 872,934.5C 862.128,899.574 874.628,877.24 909.5,867.5 Z M 912.5,892.5 C 930.665,891.835 939.831,900.501 940,918.5C 933.589,935.198 922.089,940.031 905.5,933C 892.178,920.625 892.178,908.291 905.5,896C 907.925,894.787 910.259,893.621 912.5,892.5 Z"/></g>
<g><path style="opacity:0.965" fill="#221814" d="M 239.5,868.5 C 283.894,868.016 328.227,868.516 372.5,870C 373.333,870.833 374.167,871.667 375,872.5C 375.5,888.163 375.667,903.83 375.5,919.5C 340.167,919.5 304.833,919.5 269.5,919.5C 269.5,921.833 269.5,924.167 269.5,926.5C 304.833,926.5 340.167,926.5 375.5,926.5C 375.5,933.833 375.5,941.167 375.5,948.5C 335.165,948.667 294.832,948.5 254.5,948C 247.235,947.13 242.402,943.297 240,936.5C 239.5,923.504 239.333,910.504 239.5,897.5C 274.5,897.5 309.5,897.5 344.5,897.5C 344.5,895.167 344.5,892.833 344.5,890.5C 309.5,890.5 274.5,890.5 239.5,890.5C 239.5,883.167 239.5,875.833 239.5,868.5 Z"/></g>
<g><path style="opacity:0.96" fill="#221814" d="M 434.5,883.5 C 444.833,883.5 455.167,883.5 465.5,883.5C 465.5,896.833 465.5,910.167 465.5,923.5C 499.5,923.5 533.5,923.5 567.5,923.5C 567.5,931.833 567.5,940.167 567.5,948.5C 529.499,948.667 491.499,948.5 453.5,948C 442.653,946.487 436.487,940.32 435,929.5C 434.5,914.17 434.333,898.837 434.5,883.5 Z"/></g>
<g><path style="opacity:0.953" fill="#221814" d="M 47.5,887.5 C 57.5,887.5 67.5,887.5 77.5,887.5C 77.5,899.5 77.5,911.5 77.5,923.5C 112.167,923.5 146.833,923.5 181.5,923.5C 181.5,931.833 181.5,940.167 181.5,948.5C 143.165,948.667 104.832,948.5 66.5,948C 58.1124,946.732 52.279,942.232 49,934.5C 47.5985,918.877 47.0985,903.21 47.5,887.5 Z"/></g>
<g><path style="opacity:0.968" fill="#221814" d="M 1030.5,900.5 C 1040.5,900.5 1050.5,900.5 1060.5,900.5C 1060.5,908.167 1060.5,915.833 1060.5,923.5C 1095.17,923.5 1129.83,923.5 1164.5,923.5C 1164.5,931.833 1164.5,940.167 1164.5,948.5C 1126.17,948.667 1087.83,948.5 1049.5,948C 1039.97,946.796 1033.8,941.629 1031,932.5C 1030.5,921.839 1030.33,911.172 1030.5,900.5 Z"/></g>
<g><path style="opacity:0.873" fill="#4f5455" d="M 279.5,981.5 C 282.833,981.5 286.167,981.5 289.5,981.5C 289.5,1007.83 289.5,1034.17 289.5,1060.5C 286.167,1060.5 282.833,1060.5 279.5,1060.5C 279.5,1034.17 279.5,1007.83 279.5,981.5 Z"/></g>
<g><path style="opacity:0.897" fill="#4f5455" d="M 498.5,981.5 C 501.833,981.5 505.167,981.5 508.5,981.5C 508.5,1007.83 508.5,1034.17 508.5,1060.5C 505.5,1060.5 502.5,1060.5 499.5,1060.5C 499.662,1058.47 499.495,1056.47 499,1054.5C 496.785,1057.37 493.951,1059.54 490.5,1061C 478.304,1064.15 469.804,1059.99 465,1048.5C 461.432,1037.36 461.765,1026.36 466,1015.5C 473.375,1005.3 482.875,1002.8 494.5,1008C 495.667,1009.17 496.833,1010.33 498,1011.5C 498.5,1001.51 498.666,991.506 498.5,981.5 Z M 481.5,1014.5 C 490.466,1013.73 495.966,1017.73 498,1026.5C 499.31,1033.87 498.31,1040.87 495,1047.5C 490.752,1052.6 485.585,1053.76 479.5,1051C 472.241,1042.1 470.741,1032.27 475,1021.5C 476.694,1018.64 478.861,1016.31 481.5,1014.5 Z"/></g>
<g><path style="opacity:0.97" fill="#4f5455" d="M 638.5,981.5 C 641.5,981.5 644.5,981.5 647.5,981.5C 647.5,1007.83 647.5,1034.17 647.5,1060.5C 644.5,1060.5 641.5,1060.5 638.5,1060.5C 638.5,1034.17 638.5,1007.83 638.5,981.5 Z"/></g>
<g><path style="opacity:0.893" fill="#4f5455" d="M 932.5,981.5 C 935.833,981.5 939.167,981.5 942.5,981.5C 942.5,1007.83 942.5,1034.17 942.5,1060.5C 939.5,1060.5 936.5,1060.5 933.5,1060.5C 933.662,1058.47 933.495,1056.47 933,1054.5C 926.936,1061.18 919.436,1063.35 910.5,1061C 899.767,1054.85 895.1,1045.52 896.5,1033C 896.558,1010.58 907.225,1002.25 928.5,1008C 929.667,1009.17 930.833,1010.33 932,1011.5C 932.5,1001.51 932.666,991.506 932.5,981.5 Z M 915.5,1014.5 C 924.954,1013.79 930.454,1018.12 932,1027.5C 934.209,1036.63 932.042,1044.46 925.5,1051C 919.552,1054.26 914.386,1053.09 910,1047.5C 905.389,1038.14 905.389,1028.81 910,1019.5C 911.73,1017.6 913.563,1015.93 915.5,1014.5 Z"/></g>
<g><path style="opacity:0.839" fill="#4f5455" d="M 254.5,983.5 C 258.167,983.5 261.833,983.5 265.5,983.5C 265.5,987.5 265.5,991.5 265.5,995.5C 261.833,995.5 258.167,995.5 254.5,995.5C 254.5,991.5 254.5,987.5 254.5,983.5 Z"/></g>
<g><path style="opacity:0.917" fill="#4f5455" d="M 522.5,983.5 C 525.833,983.5 529.167,983.5 532.5,983.5C 532.5,987.5 532.5,991.5 532.5,995.5C 529.167,995.5 525.833,995.5 522.5,995.5C 522.5,991.5 522.5,987.5 522.5,983.5 Z"/></g>
<g><path style="opacity:0.839" fill="#4f5455" d="M 1041.5,983.5 C 1045.17,983.5 1048.83,983.5 1052.5,983.5C 1052.5,987.5 1052.5,991.5 1052.5,995.5C 1048.83,995.5 1045.17,995.5 1041.5,995.5C 1041.5,991.5 1041.5,987.5 1041.5,983.5 Z"/></g>
<g><path style="opacity:0.89" fill="#4f5455" d="M 216.5,985.5 C 224.041,985.411 231.375,986.577 238.5,989C 239.629,993.079 239.796,997.245 239,1001.5C 228.778,995.463 218.278,994.963 207.5,1000C 196.593,1009.6 193.427,1021.44 198,1035.5C 203.986,1048.74 214.153,1053.91 228.5,1051C 230.441,1044.11 231.108,1036.95 230.5,1029.5C 225.833,1029.5 221.167,1029.5 216.5,1029.5C 216.5,1026.17 216.5,1022.83 216.5,1019.5C 224.5,1019.5 232.5,1019.5 240.5,1019.5C 240.823,1032.75 240.489,1045.91 239.5,1059C 200.979,1068 183.145,1052.84 186,1013.5C 190.055,997.407 200.222,988.073 216.5,985.5 Z"/></g>
<g><path style="opacity:0.909" fill="#4f5455" d="M 16.5,987.5 C 19.8333,987.5 23.1667,987.5 26.5,987.5C 26.5,997.5 26.5,1007.5 26.5,1017.5C 36.5,1017.5 46.5,1017.5 56.5,1017.5C 56.5,1007.5 56.5,997.5 56.5,987.5C 60.1667,987.5 63.8333,987.5 67.5,987.5C 67.5,1011.83 67.5,1036.17 67.5,1060.5C 63.8333,1060.5 60.1667,1060.5 56.5,1060.5C 56.5,1049.5 56.5,1038.5 56.5,1027.5C 46.5,1027.5 36.5,1027.5 26.5,1027.5C 26.5,1038.5 26.5,1049.5 26.5,1060.5C 23.1667,1060.5 19.8333,1060.5 16.5,1060.5C 16.5,1036.17 16.5,1011.83 16.5,987.5 Z"/></g>
<g><path style="opacity:0.877" fill="#4f5455" d="M 328.5,987.5 C 334.206,987.171 339.872,987.505 345.5,988.5C 352.296,1007.39 358.796,1026.39 365,1045.5C 371.599,1026.54 378.099,1007.54 384.5,988.5C 390.128,987.505 395.794,987.171 401.5,987.5C 401.5,1011.83 401.5,1036.17 401.5,1060.5C 397.833,1060.5 394.167,1060.5 390.5,1060.5C 390.667,1041.16 390.5,1021.83 390,1002.5C 383.796,1021.61 377.296,1040.61 370.5,1059.5C 366.893,1060.49 363.226,1060.82 359.5,1060.5C 353.308,1041.09 346.808,1021.76 340,1002.5C 339.5,1021.83 339.333,1041.16 339.5,1060.5C 335.833,1060.5 332.167,1060.5 328.5,1060.5C 328.5,1036.17 328.5,1011.83 328.5,987.5 Z"/></g>
<g><path style="opacity:0.92" fill="#4f5455" d="M 686.5,987.5 C 698.5,987.5 710.5,987.5 722.5,987.5C 722.5,990.833 722.5,994.167 722.5,997.5C 713.833,997.5 705.167,997.5 696.5,997.5C 696.5,1004.17 696.5,1010.83 696.5,1017.5C 704.833,1017.5 713.167,1017.5 721.5,1017.5C 721.5,1020.83 721.5,1024.17 721.5,1027.5C 713.167,1027.5 704.833,1027.5 696.5,1027.5C 696.5,1038.5 696.5,1049.5 696.5,1060.5C 693.167,1060.5 689.833,1060.5 686.5,1060.5C 686.5,1036.17 686.5,1011.83 686.5,987.5 Z"/></g>
<g><path style="opacity:0.88" fill="#4f5455" d="M 1016.5,991.5 C 1017.5,991.5 1018.5,991.5 1019.5,991.5C 1019.5,996.5 1019.5,1001.5 1019.5,1006.5C 1023.83,1006.5 1028.17,1006.5 1032.5,1006.5C 1032.5,1009.5 1032.5,1012.5 1032.5,1015.5C 1028.17,1015.5 1023.83,1015.5 1019.5,1015.5C 1019.07,1026.91 1019.57,1038.24 1021,1049.5C 1024.63,1052.81 1028.79,1053.47 1033.5,1051.5C 1034.01,1055.03 1033.34,1058.2 1031.5,1061C 1027.17,1061.67 1022.83,1061.67 1018.5,1061C 1013.37,1058.93 1010.54,1055.1 1010,1049.5C 1009.5,1038.17 1009.33,1026.84 1009.5,1015.5C 1006.17,1015.5 1002.83,1015.5 999.5,1015.5C 999.5,1012.5 999.5,1009.5 999.5,1006.5C 1002.83,1006.5 1006.17,1006.5 1009.5,1006.5C 1009.33,1002.49 1009.5,998.486 1010,994.5C 1012.29,993.578 1014.46,992.578 1016.5,991.5 Z"/></g>
<g><path style="opacity:0.879" fill="#4f5455" d="M 93.5,1005.5 C 107.954,1002.62 116.454,1008.29 119,1022.5C 119.5,1035.16 119.667,1047.83 119.5,1060.5C 116.5,1060.5 113.5,1060.5 110.5,1060.5C 110.66,1058.8 110.494,1057.13 110,1055.5C 108.062,1058.11 105.562,1059.94 102.5,1061C 80.9414,1063.69 73.7747,1054.86 81,1034.5C 87.0258,1029.03 94.1925,1026.36 102.5,1026.5C 104.858,1026.75 107.192,1027.09 109.5,1027.5C 109.299,1016.89 103.966,1012.72 93.5,1015C 90.2211,1015.97 87.2211,1017.47 84.5,1019.5C 83.1667,1016.17 83.1667,1012.83 84.5,1009.5C 87.4824,1007.84 90.4824,1006.5 93.5,1005.5 Z M 97.5,1035.5 C 101.5,1035.5 105.5,1035.5 109.5,1035.5C 110.643,1048.53 104.976,1054.03 92.5,1052C 88.0618,1048.43 87.3951,1044.27 90.5,1039.5C 92.7654,1037.87 95.0987,1036.54 97.5,1035.5 Z"/></g>
<g><path style="opacity:0.9" fill="#4f5455" d="M 151.5,1005.5 C 161.287,1003.58 168.454,1006.91 173,1015.5C 174.451,1030.43 174.951,1045.43 174.5,1060.5C 171.5,1060.5 168.5,1060.5 165.5,1060.5C 165.853,1047.46 165.353,1034.46 164,1021.5C 160.125,1013.87 154.625,1012.54 147.5,1017.5C 145.226,1019.71 143.726,1022.38 143,1025.5C 141.588,1037.1 141.088,1048.77 141.5,1060.5C 138.167,1060.5 134.833,1060.5 131.5,1060.5C 131.5,1042.5 131.5,1024.5 131.5,1006.5C 134.833,1006.5 138.167,1006.5 141.5,1006.5C 141.338,1008.53 141.505,1010.53 142,1012.5C 144.529,1009.12 147.696,1006.78 151.5,1005.5 Z"/></g>
<g><path style="opacity:0.886" fill="#4f5455" d="M 428.5,1005.5 C 440.986,1003.32 449.486,1007.99 454,1019.5C 455.347,1025.1 456.18,1030.76 456.5,1036.5C 445.167,1036.5 433.833,1036.5 422.5,1036.5C 422.81,1045.98 427.644,1051.65 437,1053.5C 442.44,1052.61 447.44,1050.61 452,1047.5C 452.667,1051.17 452.667,1054.83 452,1058.5C 450.055,1059.86 447.888,1060.7 445.5,1061C 423.573,1064.9 412.239,1055.74 411.5,1033.5C 411.126,1020.21 416.792,1010.88 428.5,1005.5 Z M 430.5,1014.5 C 440.66,1013.66 445.66,1018.33 445.5,1028.5C 437.833,1028.5 430.167,1028.5 422.5,1028.5C 422.605,1022.28 425.272,1017.62 430.5,1014.5 Z"/></g>
<g><path style="opacity:0.881" fill="#4f5455" d="M 560.5,1005.5 C 566.328,1005.05 571.995,1005.72 577.5,1007.5C 577.876,1010.37 577.876,1013.37 577.5,1016.5C 561.714,1011.43 553.38,1017.27 552.5,1034C 554.09,1050.32 562.423,1055.99 577.5,1051C 578.451,1054.06 578.784,1057.22 578.5,1060.5C 556.16,1065.15 544.16,1056.15 542.5,1033.5C 541.99,1019.83 547.99,1010.49 560.5,1005.5 Z"/></g>
<g><path style="opacity:0.886" fill="#4f5455" d="M 598.5,1005.5 C 606.419,1004.31 613.586,1005.98 620,1010.5C 621,1012.5 622,1014.5 623,1016.5C 624.432,1031.11 624.932,1045.77 624.5,1060.5C 621.5,1060.5 618.5,1060.5 615.5,1060.5C 615.66,1058.8 615.494,1057.13 615,1055.5C 613.062,1058.11 610.562,1059.94 607.5,1061C 588.876,1064.62 581.043,1057.12 584,1038.5C 586.658,1032.74 591.158,1029.24 597.5,1028C 603.153,1026.42 608.82,1026.25 614.5,1027.5C 614.65,1016.49 609.316,1012.33 598.5,1015C 595.221,1015.97 592.221,1017.47 589.5,1019.5C 588.345,1016.55 588.179,1013.55 589,1010.5C 591.995,1008.35 595.162,1006.68 598.5,1005.5 Z M 602.5,1035.5 C 606.5,1035.5 610.5,1035.5 614.5,1035.5C 615.967,1045.6 611.801,1051.6 602,1053.5C 594.63,1051.76 592.297,1047.42 595,1040.5C 597.17,1038.18 599.67,1036.51 602.5,1035.5 Z"/></g>
<g><path style="opacity:0.881" fill="#4f5455" d="M 747.5,1005.5 C 767.292,1004.29 777.625,1013.62 778.5,1033.5C 777.442,1054.07 766.775,1063.23 746.5,1061C 736.303,1057.46 730.47,1050.3 729,1039.5C 727.167,1028 730.334,1018.17 738.5,1010C 741.437,1008.2 744.437,1006.7 747.5,1005.5 Z M 749.5,1014.5 C 758.837,1013.99 764.67,1018.32 767,1027.5C 768.945,1036.56 766.778,1044.4 760.5,1051C 753.902,1054.4 748.068,1053.23 743,1047.5C 736.155,1034.54 738.322,1023.54 749.5,1014.5 Z"/></g>
<g><path style="opacity:0.89" fill="#4f5455" d="M 863.5,1005.5 C 869.563,1004.84 875.23,1006 880.5,1009C 882.377,1011.25 883.877,1013.75 885,1016.5C 886.432,1031.11 886.932,1045.77 886.5,1060.5C 883.167,1060.5 879.833,1060.5 876.5,1060.5C 876.667,1048.16 876.5,1035.83 876,1023.5C 873.469,1014.21 867.969,1012.05 859.5,1017C 856.537,1019.87 854.704,1023.37 854,1027.5C 853.5,1038.49 853.333,1049.49 853.5,1060.5C 850.167,1060.5 846.833,1060.5 843.5,1060.5C 843.5,1042.5 843.5,1024.5 843.5,1006.5C 846.5,1006.5 849.5,1006.5 852.5,1006.5C 852.337,1008.86 852.503,1011.19 853,1013.5C 855.806,1009.85 859.306,1007.19 863.5,1005.5 Z"/></g>
<g><path style="opacity:0.884" fill="#4f5455" d="M 967.5,1005.5 C 972.93,1005.16 978.264,1005.66 983.5,1007C 987.593,1009.01 990.427,1012.17 992,1016.5C 993.413,1031.12 993.913,1045.78 993.5,1060.5C 990.5,1060.5 987.5,1060.5 984.5,1060.5C 984.66,1058.8 984.494,1057.13 984,1055.5C 982.062,1058.11 979.562,1059.94 976.5,1061C 955.476,1063.46 948.309,1054.63 955,1034.5C 963.34,1027.74 972.84,1025.41 983.5,1027.5C 983.357,1016.91 978.024,1012.74 967.5,1015C 964.221,1015.97 961.221,1017.47 958.5,1019.5C 957.345,1016.55 957.179,1013.55 958,1010.5C 960.995,1008.35 964.162,1006.68 967.5,1005.5 Z M 971.5,1035.5 C 975.5,1035.5 979.5,1035.5 983.5,1035.5C 984.957,1045.63 980.79,1051.63 971,1053.5C 964.319,1052.13 961.653,1048.13 963,1041.5C 965.322,1038.6 968.155,1036.6 971.5,1035.5 Z"/></g>
<g><path style="opacity:0.887" fill="#4f5455" d="M 1081.5,1005.5 C 1101.28,1004.27 1111.61,1013.61 1112.5,1033.5C 1109.55,1057.98 1096.55,1066.14 1073.5,1058C 1061.86,1046.33 1059.36,1032.83 1066,1017.5C 1069.71,1011.42 1074.87,1007.42 1081.5,1005.5 Z M 1083.5,1014.5 C 1095.77,1014.94 1101.77,1021.44 1101.5,1034C 1101.59,1044.38 1096.75,1050.88 1087,1053.5C 1077.07,1050.69 1072.24,1044.02 1072.5,1033.5C 1072.88,1025.05 1076.54,1018.72 1083.5,1014.5 Z"/></g>
<g><path style="opacity:0.886" fill="#4f5455" d="M 1141.5,1005.5 C 1147.56,1004.84 1153.23,1006 1158.5,1009C 1160.38,1011.25 1161.88,1013.75 1163,1016.5C 1164.43,1031.11 1164.93,1045.77 1164.5,1060.5C 1161.17,1060.5 1157.83,1060.5 1154.5,1060.5C 1154.67,1048.16 1154.5,1035.83 1154,1023.5C 1153.28,1017.95 1150.11,1014.95 1144.5,1014.5C 1137.2,1015.74 1133.03,1020.07 1132,1027.5C 1131.5,1038.49 1131.33,1049.49 1131.5,1060.5C 1128.17,1060.5 1124.83,1060.5 1121.5,1060.5C 1121.5,1042.5 1121.5,1024.5 1121.5,1006.5C 1124.5,1006.5 1127.5,1006.5 1130.5,1006.5C 1130.34,1008.86 1130.5,1011.19 1131,1013.5C 1133.54,1009.49 1137.04,1006.82 1141.5,1005.5 Z"/></g>
<g><path style="opacity:0.875" fill="#4f5455" d="M 254.5,1006.5 C 257.833,1006.5 261.167,1006.5 264.5,1006.5C 264.5,1024.5 264.5,1042.5 264.5,1060.5C 261.167,1060.5 257.833,1060.5 254.5,1060.5C 254.5,1042.5 254.5,1024.5 254.5,1006.5 Z"/></g>
<g><path style="opacity:0.881" fill="#4f5455" d="M 522.5,1006.5 C 525.833,1006.5 529.167,1006.5 532.5,1006.5C 532.5,1024.5 532.5,1042.5 532.5,1060.5C 529.167,1060.5 525.833,1060.5 522.5,1060.5C 522.5,1042.5 522.5,1024.5 522.5,1006.5 Z"/></g>
<g><path style="opacity:0.908" fill="#4f5455" d="M 787.5,1006.5 C 790.833,1006.5 794.167,1006.5 797.5,1006.5C 797.333,1018.5 797.5,1030.5 798,1042.5C 800.495,1052.99 806.328,1055.49 815.5,1050C 819.093,1045.14 820.927,1039.64 821,1033.5C 821.5,1024.51 821.666,1015.51 821.5,1006.5C 824.5,1006.5 827.5,1006.5 830.5,1006.5C 830.5,1024.5 830.5,1042.5 830.5,1060.5C 827.5,1060.5 824.5,1060.5 821.5,1060.5C 821.662,1058.47 821.495,1056.47 821,1054.5C 814.936,1061.18 807.436,1063.35 798.5,1061C 792.164,1057.85 788.664,1052.68 788,1045.5C 787.5,1032.5 787.333,1019.5 787.5,1006.5 Z"/></g>
<g><path style="opacity:0.972" fill="#4f5455" d="M 1042.5,1006.5 C 1045.5,1006.5 1048.5,1006.5 1051.5,1006.5C 1051.5,1024.5 1051.5,1042.5 1051.5,1060.5C 1048.5,1060.5 1045.5,1060.5 1042.5,1060.5C 1042.5,1042.5 1042.5,1024.5 1042.5,1006.5 Z"/></g>
</svg>
